<?xml version="1.0" encoding="utf-8"?>
<!-- Generator: Adobe Illustrator 15.0.0, SVG Export Plug-In . SVG Version: 6.00 Build 0)  -->
<!DOCTYPE svg PUBLIC "-//W3C//DTD SVG 1.1//EN" "http://www.w3.org/Graphics/SVG/1.1/DTD/svg11.dtd">
<svg version="1.1" id="Layer_1" xmlns="http://www.w3.org/2000/svg" xmlns:xlink="http://www.w3.org/1999/xlink" x="0px" y="0px"
	 width="102.651px" height="28.22px" viewBox="0 0 102.651 28.22" enable-background="new 0 0 102.651 28.22" xml:space="preserve">
<g>
	<g>
		<g>
			<path fill="#2991C3" d="M24.874,20.45H14.729c-0.452,0-0.633-0.315-0.4-0.702l3.016-5.029l3.961-6.607l4.148-6.92
				c0.231-0.385,0.051-0.703-0.4-0.703H0.821C0.369,0.488,0,0.857,0,1.307v5.34c0,0.45,0.369,0.818,0.821,0.818h10.037
				c0.451,0,0.631,0.315,0.399,0.701l-0.437,0.725l-3.616,6.012l-7.07,11.751c-0.231,0.386-0.053,0.7,0.399,0.7h24.34
				c0.451,0,0.822-0.367,0.822-0.816v-5.269C25.696,20.818,25.325,20.45,24.874,20.45z"/>
		</g>
	</g>
	<g>
		<g>
			<path fill="#2991C3" d="M48.954,20.168H37.662c-0.452,0-0.822-0.369-0.822-0.818v-1.404c0-0.45,0.37-0.817,0.822-0.817h6.096
				h5.039c0.45,0,0.821-0.369,0.821-0.818v-5.054c0-0.451-0.371-0.818-0.821-0.818H37.662c-0.452,0-0.822-0.369-0.822-0.818V8.71
				V8.541c0-0.45,0.37-0.818,0.822-0.818h11.22c0.451,0,0.822-0.368,0.822-0.818V1.563c0-0.451-0.371-0.818-0.822-0.818h-19.06
				C29.369,0.744,29,1.111,29,1.563v6.752v7.119v11.357c0,0.449,0.369,0.818,0.822,0.818h19.132c0.451,0,0.822-0.369,0.822-0.818
				v-5.807C49.776,20.535,49.405,20.168,48.954,20.168z"/>
		</g>
	</g>
	<g>
		<g>
			<path fill="#227DA8" d="M57.236,14.967l6.385-14.223h-9.851C53.346,0.744,53,1.113,53,1.566v15.324
				c0,0.742,0.046,1.449,0.136,2.121c0.376,2.824,1.543,5.031,3.503,6.619c0.886,0.702,1.904,1.259,3.051,1.676l6.185-12.34H57.236z
				"/>
			<path fill="#227DA8" d="M77.836,17.023c0-0.567-0.006-15.457-0.006-15.457c0-0.453-0.346-0.822-0.771-0.822h-4.332l-6.854,9.224
				l7.084-0.226l-13.22,17.582c1.66,0.596,3.591,0.896,5.795,0.896c3.751,0,6.661-0.966,8.827-2.769
				c0.496-0.414,0.921-0.871,1.286-1.353C77.972,21.041,77.836,17.023,77.836,17.023z"/>
		</g>
	</g>
	<g>
		<g>
			<path fill="#2991C3" d="M99.586,12.95c-0.526-0.368-1.381-0.793-2.54-1.27c-0.87-0.358-1.907-0.745-3.132-1.163
				c-2.044-0.716-3.066-1.49-3.066-2.326c0-1.096,0.856-1.645,2.568-1.645c1.787,0,6.092,2.216,6.092,2.216
				c0.422,0.218,0.831,0.032,0.91-0.411l1.044-5.883C98.551,0.822,95.612,0,92.649,0c-3.117,0-5.735,0.727-7.856,2.183
				c-2.35,1.622-3.524,3.839-3.524,6.653c0,2.048,0.784,3.738,2.354,5.072c0.221,0.189,0.459,0.369,0.712,0.544
				c0.996,0.692,2.912,1.538,5.747,2.54c2.044,0.739,3.066,1.456,3.066,2.146c0,0.691-0.358,1.205-1.073,1.538
				c-0.563,0.286-1.238,0.43-2.03,0.43c-2.453,0-7.219-2.657-7.219-2.657c-0.414-0.232-0.809-0.055-0.876,0.39l-0.849,5.579
				L81,25.076c2.913,1.813,6.387,2.72,10.423,2.72c3.116,0,5.71-0.739,7.779-2.219c0.632-0.444,1.174-0.937,1.632-1.473
				c1.209-1.414,1.817-3.14,1.817-5.181C102.651,16.372,101.629,14.381,99.586,12.95z"/>
		</g>
	</g>
</g>
</svg>
